<mxfile host="app.diagrams.net" modified="2023-03-23T12:10:39.492Z" agent="5.0 (Windows NT 10.0; Win64; x64) AppleWebKit/537.36 (KHTML, like Gecko) Chrome/111.0.0.0 Safari/537.36" etag="lvqiR7GgyEipV7vTGZbx" version="21.0.8" type="github">
  <diagram name="Strona-1" id="mx-yjaGu65mLuzH14VSk">
    <mxGraphModel dx="1434" dy="796" grid="1" gridSize="10" guides="1" tooltips="1" connect="1" arrows="1" fold="1" page="1" pageScale="1" pageWidth="850" pageHeight="1100" math="0" shadow="0">
      <root>
        <mxCell id="0" />
        <mxCell id="1" parent="0" />
        <mxCell id="mDGoLThU23sySPT9Raaa-1" value="&lt;font style=&quot;font-size: 24px;&quot;&gt;Stop&lt;/font&gt;" style="ellipse;whiteSpace=wrap;html=1;" vertex="1" parent="1">
          <mxGeometry x="365" y="480" width="120" height="80" as="geometry" />
        </mxCell>
        <mxCell id="mDGoLThU23sySPT9Raaa-4" style="edgeStyle=orthogonalEdgeStyle;rounded=0;orthogonalLoop=1;jettySize=auto;html=1;entryX=0.5;entryY=0;entryDx=0;entryDy=0;" edge="1" parent="1" source="mDGoLThU23sySPT9Raaa-2" target="mDGoLThU23sySPT9Raaa-3">
          <mxGeometry relative="1" as="geometry" />
        </mxCell>
        <mxCell id="mDGoLThU23sySPT9Raaa-2" value="&lt;font style=&quot;font-size: 24px;&quot;&gt;Start&lt;/font&gt;" style="ellipse;whiteSpace=wrap;html=1;" vertex="1" parent="1">
          <mxGeometry x="365" y="50" width="120" height="80" as="geometry" />
        </mxCell>
        <mxCell id="mDGoLThU23sySPT9Raaa-7" style="edgeStyle=orthogonalEdgeStyle;rounded=0;orthogonalLoop=1;jettySize=auto;html=1;entryX=0.5;entryY=0;entryDx=0;entryDy=0;" edge="1" parent="1" source="mDGoLThU23sySPT9Raaa-3">
          <mxGeometry relative="1" as="geometry">
            <mxPoint x="425" y="300" as="targetPoint" />
            <Array as="points">
              <mxPoint x="425" y="300" />
              <mxPoint x="425" y="300" />
            </Array>
          </mxGeometry>
        </mxCell>
        <mxCell id="mDGoLThU23sySPT9Raaa-3" value="Podaj a" style="rounded=0;whiteSpace=wrap;html=1;" vertex="1" parent="1">
          <mxGeometry x="365" y="180" width="120" height="60" as="geometry" />
        </mxCell>
        <mxCell id="mDGoLThU23sySPT9Raaa-9" style="edgeStyle=orthogonalEdgeStyle;rounded=0;orthogonalLoop=1;jettySize=auto;html=1;" edge="1" parent="1" source="mDGoLThU23sySPT9Raaa-5">
          <mxGeometry relative="1" as="geometry">
            <mxPoint x="240" y="340" as="targetPoint" />
          </mxGeometry>
        </mxCell>
        <mxCell id="mDGoLThU23sySPT9Raaa-10" style="edgeStyle=orthogonalEdgeStyle;rounded=0;orthogonalLoop=1;jettySize=auto;html=1;" edge="1" parent="1" source="mDGoLThU23sySPT9Raaa-5">
          <mxGeometry relative="1" as="geometry">
            <mxPoint x="610" y="340" as="targetPoint" />
          </mxGeometry>
        </mxCell>
        <mxCell id="mDGoLThU23sySPT9Raaa-5" value="a mod 2=0" style="rhombus;whiteSpace=wrap;html=1;" vertex="1" parent="1">
          <mxGeometry x="385" y="300" width="80" height="80" as="geometry" />
        </mxCell>
        <mxCell id="mDGoLThU23sySPT9Raaa-16" style="edgeStyle=orthogonalEdgeStyle;rounded=0;orthogonalLoop=1;jettySize=auto;html=1;entryX=0;entryY=0.5;entryDx=0;entryDy=0;" edge="1" parent="1" source="mDGoLThU23sySPT9Raaa-11" target="mDGoLThU23sySPT9Raaa-1">
          <mxGeometry relative="1" as="geometry">
            <Array as="points">
              <mxPoint x="180" y="520" />
            </Array>
          </mxGeometry>
        </mxCell>
        <mxCell id="mDGoLThU23sySPT9Raaa-11" value="Liczba jest parzysta" style="rounded=0;whiteSpace=wrap;html=1;" vertex="1" parent="1">
          <mxGeometry x="120" y="310" width="120" height="60" as="geometry" />
        </mxCell>
        <mxCell id="mDGoLThU23sySPT9Raaa-15" style="edgeStyle=orthogonalEdgeStyle;rounded=0;orthogonalLoop=1;jettySize=auto;html=1;entryX=1;entryY=0.5;entryDx=0;entryDy=0;" edge="1" parent="1" source="mDGoLThU23sySPT9Raaa-12" target="mDGoLThU23sySPT9Raaa-1">
          <mxGeometry relative="1" as="geometry">
            <Array as="points">
              <mxPoint x="680" y="520" />
            </Array>
          </mxGeometry>
        </mxCell>
        <mxCell id="mDGoLThU23sySPT9Raaa-12" value="liczba nie jest parzysta" style="rounded=0;whiteSpace=wrap;html=1;" vertex="1" parent="1">
          <mxGeometry x="610" y="310" width="120" height="60" as="geometry" />
        </mxCell>
        <mxCell id="mDGoLThU23sySPT9Raaa-13" value="Tak" style="text;html=1;strokeColor=none;fillColor=none;align=center;verticalAlign=middle;whiteSpace=wrap;rounded=0;" vertex="1" parent="1">
          <mxGeometry x="290" y="290" width="60" height="30" as="geometry" />
        </mxCell>
        <mxCell id="mDGoLThU23sySPT9Raaa-14" value="Nie" style="text;html=1;strokeColor=none;fillColor=none;align=center;verticalAlign=middle;whiteSpace=wrap;rounded=0;" vertex="1" parent="1">
          <mxGeometry x="510" y="290" width="60" height="30" as="geometry" />
        </mxCell>
      </root>
    </mxGraphModel>
  </diagram>
</mxfile>
